<svg width="1440" height="900" viewBox="0 0 1440 900" fill="none" xmlns="http://www.w3.org/2000/svg" role="img" aria-labelledby="title desc">
  <title id="title">OKX security risk report running inside sandboxed.sh Mission Control</title>
  <desc id="desc">A sandboxed.sh mission dashboard showing an autonomous OKX security check with read-only risk signals and sandbox boundary details.</desc>
  <rect width="1440" height="900" fill="#f6f7f9"/>
  <rect x="36" y="32" width="1368" height="836" rx="22" fill="#111827"/>
  <rect x="36" y="32" width="1368" height="72" rx="22" fill="#0b1220"/>
  <circle cx="74" cy="68" r="8" fill="#ef4444"/>
  <circle cx="101" cy="68" r="8" fill="#f59e0b"/>
  <circle cx="128" cy="68" r="8" fill="#10b981"/>
  <text x="170" y="76" fill="#e5e7eb" font-family="Inter, Arial, sans-serif" font-size="24" font-weight="700">sandboxed.sh Mission Control</text>
  <text x="1232" y="76" fill="#93c5fd" font-family="Inter, Arial, sans-serif" font-size="18" font-weight="700">OKX read-only skill</text>

  <rect x="68" y="134" width="366" height="690" rx="16" fill="#172033" stroke="#2f3a4f"/>
  <text x="100" y="184" fill="#f9fafb" font-family="Inter, Arial, sans-serif" font-size="25" font-weight="800">Autonomous transaction</text>
  <text x="100" y="216" fill="#f9fafb" font-family="Inter, Arial, sans-serif" font-size="25" font-weight="800">safety check</text>
  <text x="100" y="248" fill="#a7b0c0" font-family="Inter, Arial, sans-serif" font-size="18">Workspace template</text>
  <rect x="100" y="284" width="200" height="36" rx="18" fill="#ecfdf5"/>
  <text x="120" y="308" fill="#047857" font-family="Inter, Arial, sans-serif" font-size="16" font-weight="800">sandbox isolated</text>
  <rect x="100" y="338" width="172" height="36" rx="18" fill="#eff6ff"/>
  <text x="120" y="362" fill="#1d4ed8" font-family="Inter, Arial, sans-serif" font-size="16" font-weight="800">no wallet keys</text>
  <rect x="100" y="392" width="198" height="36" rx="18" fill="#fff7ed"/>
  <text x="120" y="416" fill="#c2410c" font-family="Inter, Arial, sans-serif" font-size="16" font-weight="800">no broadcasts</text>

  <text x="100" y="465" fill="#e5e7eb" font-family="Inter, Arial, sans-serif" font-size="20" font-weight="700">Native harness sync</text>
  <text x="100" y="508" fill="#a7b0c0" font-family="Inter, Arial, sans-serif" font-size="18">.claude/skills/okx-security</text>
  <text x="100" y="548" fill="#a7b0c0" font-family="Inter, Arial, sans-serif" font-size="18">.opencode/skill/okx-security</text>
  <text x="100" y="588" fill="#a7b0c0" font-family="Inter, Arial, sans-serif" font-size="18">.agents/skills/okx-security</text>

  <rect x="100" y="646" width="282" height="112" rx="12" fill="#0f172a" stroke="#334155"/>
  <text x="124" y="684" fill="#93c5fd" font-family="Inter, Arial, sans-serif" font-size="18" font-weight="700">Agent status</text>
  <text x="124" y="724" fill="#d1d5db" font-family="Inter, Arial, sans-serif" font-size="18">unattended run complete</text>

  <rect x="472" y="134" width="900" height="690" rx="16" fill="#ffffff"/>
  <text x="520" y="190" fill="#111827" font-family="Inter, Arial, sans-serif" font-size="34" font-weight="900">OKX Security Risk Report</text>
  <text x="520" y="226" fill="#6b7280" font-family="Inter, Arial, sans-serif" font-size="18">Generated by an autonomous agent inside an isolated sandbox.</text>

  <rect x="520" y="270" width="246" height="128" rx="14" fill="#fef2f2" stroke="#fecaca"/>
  <text x="548" y="310" fill="#991b1b" font-family="Inter, Arial, sans-serif" font-size="18" font-weight="800">Verdict</text>
  <text x="548" y="358" fill="#7f1d1d" font-family="Inter, Arial, sans-serif" font-size="44" font-weight="900">WARN</text>

  <rect x="790" y="270" width="246" height="128" rx="14" fill="#fffbeb" stroke="#fde68a"/>
  <text x="818" y="310" fill="#92400e" font-family="Inter, Arial, sans-serif" font-size="18" font-weight="800">Risk score</text>
  <text x="818" y="358" fill="#78350f" font-family="Inter, Arial, sans-serif" font-size="44" font-weight="900">72 / 100</text>

  <rect x="1060" y="270" width="246" height="128" rx="14" fill="#ecfdf5" stroke="#bbf7d0"/>
  <text x="1088" y="310" fill="#065f46" font-family="Inter, Arial, sans-serif" font-size="18" font-weight="800">Boundary</text>
  <text x="1088" y="358" fill="#064e3b" font-family="Inter, Arial, sans-serif" font-size="32" font-weight="900">READ ONLY</text>

  <text x="520" y="460" fill="#111827" font-family="Inter, Arial, sans-serif" font-size="24" font-weight="900">Signals</text>
  <rect x="520" y="488" width="786" height="54" rx="10" fill="#f9fafb" stroke="#e5e7eb"/>
  <circle cx="550" cy="515" r="8" fill="#ef4444"/>
  <text x="574" y="522" fill="#111827" font-family="Inter, Arial, sans-serif" font-size="18" font-weight="700">DApp phishing flag detected in domain reputation scan</text>
  <rect x="520" y="558" width="786" height="54" rx="10" fill="#f9fafb" stroke="#e5e7eb"/>
  <circle cx="550" cy="585" r="8" fill="#f59e0b"/>
  <text x="574" y="592" fill="#111827" font-family="Inter, Arial, sans-serif" font-size="18" font-weight="700">Approval exposure exceeds expected token allowance</text>
  <rect x="520" y="628" width="786" height="54" rx="10" fill="#f9fafb" stroke="#e5e7eb"/>
  <circle cx="550" cy="655" r="8" fill="#f59e0b"/>
  <text x="574" y="662" fill="#111827" font-family="Inter, Arial, sans-serif" font-size="18" font-weight="700">Transaction simulation includes unknown external call</text>

  <text x="520" y="735" fill="#111827" font-family="Inter, Arial, sans-serif" font-size="24" font-weight="900">Next action</text>
  <text x="520" y="772" fill="#374151" font-family="Inter, Arial, sans-serif" font-size="20">Do not sign yet. Review target address, approval amount, and DApp origin.</text>
  <text x="520" y="802" fill="#6b7280" font-family="Inter, Arial, sans-serif" font-size="18">No private keys, signing, swaps, broadcasts, or approval changes were used.</text>
</svg>
